<?xml version="1.0" encoding="UTF-8"?>
<!-- Generator: CustomSymbols v2.6.2.41 by @serious_bret https://bretlester.com/app_content/CustomSymbols/ -->
<!-- Guides: Left/Right 0.0/0.0 Cap/Base 0.245/0.245 -->
<!-- Settings: RefScale 1.0 Min/Max Stroke Scales 0.5/2.2 -->
<!DOCTYPE svg
PUBLIC "-//W3C//DTD SVG 1.1//EN"
       "http://www.w3.org/Graphics/SVG/1.1/DTD/svg11.dtd">
<svg version="1.1" xmlns="http://www.w3.org/2000/svg" xmlns:xlink="http://www.w3.org/1999/xlink" width="3300" height="2200">
<![CDATA[<svg xmlns="http://www.w3.org/2000/svg" width="2000" height="2000" enable-background="new 0 0 2000 2000" viewBox="0 0 2000 2000"><path d="M1626.834,238.8247c-26.4795-31.3452-62.1055-48.6079-100.3145-48.6079c-0.0078,0-0.0586,0-0.0918,0
	c-0.0107,0-0.0273,0-0.0303,0l-1054.374,1.0303c-38.2354,0.0376-73.8574,17.3535-100.3047,48.7598
	c-25.2119,29.9395-39.0742,69.4116-39.0332,111.146l1.374,1404.856c0.0205,22.0283,9.416,39.6943,25.7764,48.4688
	c6.7598,3.625,14.124,5.4199,21.7373,5.4199c10.8135-0.001,22.126-3.623,32.9023-10.7676l459.2461-304.4521
	c8.5469-5.667,25.9805-5.6826,34.541-0.0332l459.8389,303.5537c18.3828,12.1377,38.3027,14.0459,54.6455,5.2422
	c16.3457-8.8047,25.708-26.4883,25.6865-48.5166l-1.3438-1374.8608l188.9863-0.1841c7.9561-0.0078,15.584-3.1758,21.2051-8.8076
	c5.6201-5.6318,8.7734-13.2656,8.7656-21.2222C1666.0059,308.1377,1652.0791,268.7085,1626.834,238.8247z M941.3145,1444.5684
	c-28.7383-18.9678-72.0498-18.9238-100.7451,0.1006l-446.5244,296.0186l-1.3594-1389.5938
	c-0.0273-27.5913,8.8262-53.3179,24.9277-72.439c14.8672-17.6543,34.2109-27.3877,54.4688-27.4077l945.3154-0.9238
	c-19.6826,28.2383-30.3721,63.144-30.3369,99.7974v0.0005v0.001l0,0l0,0l1.3584,1389.5938L941.3145,1444.5684z M1450.6895,320.0596
	c4.0029-15.9536,11.2344-30.4849,21.2979-42.4355c14.8672-17.6538,34.2109-27.3872,54.5322-27.4072
	c35.4727,0,65.6182,29.3364,75.8242,69.6948L1450.6895,320.0596z"/></svg>]]>
 <g id="Notes">
  <rect height="2200" id="artboard" style="fill:white;opacity:1" width="3300" x="0" y="0"/>
  <line id="" style="fill:none;stroke:black;opacity:1;stroke-width:0.5;" x1="263" x2="3036" y1="292" y2="292"/>
  <text id="reftext1" style="stroke:none;fill:black;font-family:-apple-system,&quot;SF Pro Display&quot;,&quot;SF Pro Text&quot;,Helvetica,sans-serif;font-weight:bold;" transform="matrix(1 0 0 1 263 322)">Weight/Scale Variations</text>
  <text id="reftext2" style="stroke:none;fill:black;font-family:-apple-system,&quot;SF Pro Display&quot;,&quot;SF Pro Text&quot;,Helvetica,sans-serif;text-anchor:middle;" transform="matrix(1 0 0 1 559.711 322)">Ultralight</text>
  <text style="stroke:none;fill:black;font-family:-apple-system,&quot;SF Pro Display&quot;,&quot;SF Pro Text&quot;,Helvetica,sans-serif;text-anchor:middle;" transform="matrix(1 0 0 1 856.422 322)">Thin</text>
  <text style="stroke:none;fill:black;font-family:-apple-system,&quot;SF Pro Display&quot;,&quot;SF Pro Text&quot;,Helvetica,sans-serif;text-anchor:middle;" transform="matrix(1 0 0 1 1153.13 322)">Light</text>
  <text style="stroke:none;fill:black;font-family:-apple-system,&quot;SF Pro Display&quot;,&quot;SF Pro Text&quot;,Helvetica,sans-serif;text-anchor:middle;" transform="matrix(1 0 0 1 1449.84 322)">Regular</text>
  <text style="stroke:none;fill:black;font-family:-apple-system,&quot;SF Pro Display&quot;,&quot;SF Pro Text&quot;,Helvetica,sans-serif;text-anchor:middle;" transform="matrix(1 0 0 1 1746.56 322)">Medium</text>
  <text style="stroke:none;fill:black;font-family:-apple-system,&quot;SF Pro Display&quot;,&quot;SF Pro Text&quot;,Helvetica,sans-serif;text-anchor:middle;" transform="matrix(1 0 0 1 2043.27 322)">Semibold</text>
  <text style="stroke:none;fill:black;font-family:-apple-system,&quot;SF Pro Display&quot;,&quot;SF Pro Text&quot;,Helvetica,sans-serif;text-anchor:middle;" transform="matrix(1 0 0 1 2339.98 322)">Bold</text>
  <text style="stroke:none;fill:black;font-family:-apple-system,&quot;SF Pro Display&quot;,&quot;SF Pro Text&quot;,Helvetica,sans-serif;text-anchor:middle;" transform="matrix(1 0 0 1 2636.69 322)">Heavy</text>
  <text style="stroke:none;fill:black;font-family:-apple-system,&quot;SF Pro Display&quot;,&quot;SF Pro Text&quot;,Helvetica,sans-serif;text-anchor:middle;" transform="matrix(1 0 0 1 2933.4 322)">Black</text>
  <line id="" style="fill:none;stroke:black;opacity:1;stroke-width:0.5;" x1="263" x2="3036" y1="1903" y2="1903"/>
  <g id="" transform="matrix(1 0 0 1 263 1933)">
   <path d="M9.24805 0.830078C13.5547 0.830078 17.1387-2.74414 17.1387-7.05078C17.1387-11.3574 13.5449-14.9316 9.23828-14.9316C4.94141-14.9316 1.36719-11.3574 1.36719-7.05078C1.36719-2.74414 4.95117 0.830078 9.24805 0.830078ZM9.24805-0.654297C5.70312-0.654297 2.87109-3.49609 2.87109-7.05078C2.87109-10.6055 5.69336-13.4473 9.23828-13.4473C12.793-13.4473 15.6348-10.6055 15.6445-7.05078C15.6543-3.49609 12.8027-0.654297 9.24805-0.654297ZM6.39648-6.31836L8.50586-6.31836L8.50586-4.19922C8.50586-3.75977 8.79883-3.45703 9.22852-3.45703C9.67773-3.45703 9.9707-3.75977 9.9707-4.19922L9.9707-6.31836L12.0996-6.31836C12.5391-6.31836 12.8418-6.61133 12.8418-7.04102C12.8418-7.48047 12.5391-7.7832 12.0996-7.7832L9.9707-7.7832L9.9707-9.89258C9.9707-10.3418 9.67773-10.6445 9.22852-10.6445C8.79883-10.6445 8.50586-10.3418 8.50586-9.89258L8.50586-7.7832L6.39648-7.7832C5.94727-7.7832 5.64453-7.48047 5.64453-7.04102C5.64453-6.61133 5.94727-6.31836 6.39648-6.31836Z"/>
  </g>
  <g id="" transform="matrix(1 0 0 1 281.506 1933)">
   <path d="M11.709 2.91016C17.1582 2.91016 21.6699-1.61133 21.6699-7.05078C21.6699-12.5 17.1484-17.0117 11.6992-17.0117C6.25977-17.0117 1.74805-12.5 1.74805-7.05078C1.74805-1.61133 6.26953 2.91016 11.709 2.91016ZM11.709 1.25C7.09961 1.25 3.41797-2.44141 3.41797-7.05078C3.41797-11.6602 7.08984-15.3516 11.6992-15.3516C16.3086-15.3516 20-11.6602 20.0098-7.05078C20.0195-2.44141 16.3184 1.25 11.709 1.25ZM7.98828-6.23047L10.8789-6.23047L10.8789-3.32031C10.8789-2.83203 11.2109-2.5 11.6895-2.5C12.1777-2.5 12.5195-2.83203 12.5195-3.32031L12.5195-6.23047L15.4297-6.23047C15.918-6.23047 16.25-6.5625 16.25-7.04102C16.25-7.5293 15.918-7.87109 15.4297-7.87109L12.5195-7.87109L12.5195-10.7617C12.5195-11.2695 12.1777-11.6016 11.6895-11.6016C11.2109-11.6016 10.8789-11.2598 10.8789-10.7617L10.8789-7.87109L7.98828-7.87109C7.48047-7.87109 7.14844-7.5293 7.14844-7.04102C7.14844-6.5625 7.49023-6.23047 7.98828-6.23047Z"/>
  </g>
  <g id="" transform="matrix(1 0 0 1 304.924 1933)">
   <path d="M14.9707 5.66406C21.9336 5.66406 27.6953-0.0976562 27.6953-7.05078C27.6953-14.0137 21.9238-19.7754 14.9609-19.7754C8.00781-19.7754 2.25586-14.0137 2.25586-7.05078C2.25586-0.0976562 8.01758 5.66406 14.9707 5.66406ZM14.9707 3.84766C8.93555 3.84766 4.08203-1.01562 4.08203-7.05078C4.08203-13.0957 8.92578-17.9492 14.9609-17.9492C21.0059-17.9492 25.8594-13.0957 25.8691-7.05078C25.8789-1.01562 21.0156 3.84766 14.9707 3.84766ZM10.0586-6.14258L14.0625-6.14258L14.0625-2.12891C14.0625-1.5918 14.4336-1.2207 14.9512-1.2207C15.4883-1.2207 15.8594-1.5918 15.8594-2.12891L15.8594-6.14258L19.8828-6.14258C20.4102-6.14258 20.791-6.51367 20.791-7.03125C20.791-7.56836 20.4199-7.94922 19.8828-7.94922L15.8594-7.94922L15.8594-11.9531C15.8594-12.5098 15.4883-12.8809 14.9512-12.8809C14.4336-12.8809 14.0625-12.5 14.0625-11.9531L14.0625-7.94922L10.0586-7.94922C9.50195-7.94922 9.13086-7.56836 9.13086-7.03125C9.13086-6.51367 9.51172-6.14258 10.0586-6.14258Z"/>
  </g>
  <text style="stroke:none;fill:black;font-family:-apple-system,&quot;SF Pro Display&quot;,&quot;SF Pro Text&quot;,Helvetica,sans-serif;font-weight:bold;" transform="matrix(1 0 0 1 263 1953)">Design Variations</text>
  <text style="stroke:none;fill:black;font-family:-apple-system,&quot;SF Pro Display&quot;,&quot;SF Pro Text&quot;,Helvetica,sans-serif;" transform="matrix(1 0 0 1 263 1971)">Symbols are supported in up to nine weights and three scales.</text>
  <text style="stroke:none;fill:black;font-family:-apple-system,&quot;SF Pro Display&quot;,&quot;SF Pro Text&quot;,Helvetica,sans-serif;" transform="matrix(1 0 0 1 263 1989)">For optimal layout with text and other symbols, vertically align</text>
  <text style="stroke:none;fill:black;font-family:-apple-system,&quot;SF Pro Display&quot;,&quot;SF Pro Text&quot;,Helvetica,sans-serif;" transform="matrix(1 0 0 1 263 2007)">symbols with the adjacent text.</text>
  <line id="" style="fill:none;stroke:#00AEEF;stroke-width:0.5;opacity:1.0;" x1="776" x2="776" y1="1919" y2="1933"/>
  <g id="" transform="matrix(1 0 0 1 776 1933)">
   <path d="M3.31055 0.126953C3.82812 0.126953 4.08203-0.0683594 4.26758-0.605469L5.52734-4.0625L11.2891-4.0625L12.5488-0.605469C12.7344-0.0683594 12.9883 0.126953 13.4961 0.126953C14.0137 0.126953 14.3457-0.185547 14.3457-0.673828C14.3457-0.839844 14.3164-0.986328 14.2383-1.20117L9.6582-13.3887C9.43359-13.9941 9.0332-14.2871 8.4082-14.2871C7.80273-14.2871 7.39258-13.9941 7.17773-13.3984L2.59766-1.19141C2.51953-0.976562 2.49023-0.830078 2.49023-0.664062C2.49023-0.175781 2.80273 0.126953 3.31055 0.126953ZM6.00586-5.53711L8.37891-12.1094L8.42773-12.1094L10.8008-5.53711Z"/>
  </g>
  <line id="" style="fill:none;stroke:#00AEEF;stroke-width:0.5;opacity:1.0;" x1="792.836" x2="792.836" y1="1919" y2="1933"/>
  <text style="stroke:none;fill:black;font-family:-apple-system,&quot;SF Pro Display&quot;,&quot;SF Pro Text&quot;,Helvetica,sans-serif;font-weight:bold;" transform="matrix(1 0 0 1 776 1953)">Margins</text>
  <text style="stroke:none;fill:black;font-family:-apple-system,&quot;SF Pro Display&quot;,&quot;SF Pro Text&quot;,Helvetica,sans-serif;" transform="matrix(1 0 0 1 776 1971)">Leading and trailing margins on the left and right side of each symbol</text>
  <text style="stroke:none;fill:black;font-family:-apple-system,&quot;SF Pro Display&quot;,&quot;SF Pro Text&quot;,Helvetica,sans-serif;" transform="matrix(1 0 0 1 776 1989)">can be adjusted by modifying the x-location of the margin guidelines.</text>
  <text style="stroke:none;fill:black;font-family:-apple-system,&quot;SF Pro Display&quot;,&quot;SF Pro Text&quot;,Helvetica,sans-serif;" transform="matrix(1 0 0 1 776 2007)">Modifications are automatically applied proportionally to all</text>
  <text style="stroke:none;fill:black;font-family:-apple-system,&quot;SF Pro Display&quot;,&quot;SF Pro Text&quot;,Helvetica,sans-serif;" transform="matrix(1 0 0 1 776 2025)">scales and weights.</text>
  <g id="" transform="matrix(1 0 0 1 1289 1933)">
   <path d="M2.8418 1.86523L4.54102 3.57422C5.40039 4.44336 6.38672 4.38477 7.31445 3.35938L17.4902-7.85156C17.7539-7.76367 18.0273-7.7832 18.3398-7.8418L19.4043-8.03711L20.0684-7.36328L20.0293-6.80664C19.9902-6.30859 20.1172-5.92773 20.6055-5.44922L21.3672-4.70703C21.8457-4.22852 22.4609-4.19922 22.9297-4.66797L25.8398-7.58789C26.3086-8.05664 26.2891-8.65234 25.8105-9.13086L25.0391-9.89258C24.5605-10.3711 24.1895-10.5273 23.7109-10.4883L23.1348-10.4395L22.4902-11.0742L22.7344-12.1973C22.8613-12.7637 22.7051-13.2031 22.1191-13.7891L19.9219-15.9766C16.582-19.2969 12.1484-19.2188 9.25781-16.3281C8.83789-15.918 8.80859-15.3418 9.04297-14.9512C9.27734-14.5898 9.73633-14.3555 10.3809-14.5215C11.8457-14.8633 13.3691-14.9219 14.7949-13.9844L14.209-12.5293C14.0137-12.0508 13.9844-11.6504 14.1113-11.2891L3.04688-0.898438C2.06055 0.0195312 1.98242 0.996094 2.8418 1.86523ZM10.752-15.957C13.1836-17.7344 16.4746-17.4316 18.7012-15.2051L21.1328-12.793C21.3672-12.5586 21.4062-12.373 21.3379-12.0312L21.0156-10.5469L22.5195-9.0625L23.5059-9.12109C23.7598-9.13086 23.8379-9.11133 24.0332-8.91602L24.6094-8.33984L22.168-5.89844L21.5918-6.47461C21.3965-6.66992 21.3672-6.74805 21.377-7.01172L21.4453-7.98828L19.9512-9.47266L18.4277-9.21875C18.1055-9.15039 17.959-9.17969 17.7148-9.41406L15.7129-11.416C15.459-11.6504 15.4297-11.8164 15.5859-12.1875L16.4648-14.2773C14.9023-15.7324 12.8711-16.3574 10.8398-15.7617C10.6836-15.7227 10.625-15.8496 10.752-15.957ZM5.27344 2.30469L4.10156 1.14258C3.63281 0.683594 3.74023 0.341797 4.14062-0.0195312L14.9512-10.1953L16.416-8.71094L6.42578 2.27539C6.07422 2.67578 5.74219 2.77344 5.27344 2.30469Z"/>
  </g>
  <text style="stroke:none;fill:black;font-family:-apple-system,&quot;SF Pro Display&quot;,&quot;SF Pro Text&quot;,Helvetica,sans-serif;font-weight:bold;" transform="matrix(1 0 0 1 1289 1953)">Exporting</text>
  <text style="stroke:none;fill:black;font-family:-apple-system,&quot;SF Pro Display&quot;,&quot;SF Pro Text&quot;,Helvetica,sans-serif;" transform="matrix(1 0 0 1 1289 1971)">Symbols should be outlined when exporting to ensure the</text>
  <text style="stroke:none;fill:black;font-family:-apple-system,&quot;SF Pro Display&quot;,&quot;SF Pro Text&quot;,Helvetica,sans-serif;" transform="matrix(1 0 0 1 1289 1989)">design is preserved when submitting to Xcode.</text>
  <text id="template-version" style="stroke:none;fill:black;font-family:-apple-system,&quot;SF Pro Display&quot;,&quot;SF Pro Text&quot;,Helvetica,sans-serif;text-anchor:end;" transform="matrix(1 0 0 1 3036 1933)">Template v.2.0</text>
  <text style="stroke:none;fill:black;font-family:-apple-system,&quot;SF Pro Display&quot;,&quot;SF Pro Text&quot;,Helvetica,sans-serif;text-anchor:end;" transform="matrix(1 0 0 1 3036 1951)">Requires Xcode 12 or greater</text>
  <text style="stroke:none;fill:black;font-family:-apple-system,&quot;SF Pro Display&quot;,&quot;SF Pro Text&quot;,Helvetica,sans-serif;" transform="matrix(1 0 0 1 263 726)">Small</text>
  <text style="stroke:none;fill:black;font-family:-apple-system,&quot;SF Pro Display&quot;,&quot;SF Pro Text&quot;,Helvetica,sans-serif;" transform="matrix(1 0 0 1 263 1156)">Medium</text>
  <text style="stroke:none;fill:black;font-family:-apple-system,&quot;SF Pro Display&quot;,&quot;SF Pro Text&quot;,Helvetica,sans-serif;" transform="matrix(1 0 0 1 263 1586)">Large</text>
 </g>
 <g id="Guides">
  <g id="H-reference" style="fill:#27AAE1;stroke:none;" transform="matrix(1 0 0 1 339 696)">
   <path d="M0.976562 0L3.66211 0L12.9883-24.4629L45.752-24.4629L55.127 0L57.7637 0L30.6152-70.459L28.125-70.459ZM29.3457-67.1387L29.4434-67.1387L44.873-26.709L13.8672-26.709Z"/>
  </g>
  <line id="Baseline-S" style="fill:none;stroke:#27AAE1;opacity:1;stroke-width:0.5;" x1="263" x2="3036" y1="696" y2="696"/>
  <line id="Capline-S" style="fill:none;stroke:#27AAE1;opacity:1;stroke-width:0.5;" x1="263" x2="3036" y1="625.541" y2="625.541"/>
  <g id="H-reference" style="fill:#27AAE1;stroke:none;" transform="matrix(1 0 0 1 339 1126)">
   <path d="M0.976562 0L3.66211 0L12.9883-24.4629L45.752-24.4629L55.127 0L57.7637 0L30.6152-70.459L28.125-70.459ZM29.3457-67.1387L29.4434-67.1387L44.873-26.709L13.8672-26.709Z"/>
  </g>
  <line id="Baseline-M" style="fill:none;stroke:#27AAE1;opacity:1;stroke-width:0.5;" x1="263" x2="3036" y1="1126" y2="1126"/>
  <line id="Capline-M" style="fill:none;stroke:#27AAE1;opacity:1;stroke-width:0.5;" x1="263" x2="3036" y1="1055.54" y2="1055.54"/>
  <g id="H-reference" style="fill:#27AAE1;stroke:none;" transform="matrix(1 0 0 1 339 1556)">
   <path d="M0.976562 0L3.66211 0L12.9883-24.4629L45.752-24.4629L55.127 0L57.7637 0L30.6152-70.459L28.125-70.459ZM29.3457-67.1387L29.4434-67.1387L44.873-26.709L13.8672-26.709Z"/>
  </g>
  <line id="Baseline-L" style="fill:none;stroke:#27AAE1;opacity:1;stroke-width:0.5;" x1="263" x2="3036" y1="1556" y2="1556"/>
  <line id="Capline-L" style="fill:none;stroke:#27AAE1;opacity:1;stroke-width:0.5;" x1="263" x2="3036" y1="1485.54" y2="1485.54"/>
  <line id="left-margin" x1="1382.0516069240196" x2="1382.0516069240196" y1="1030.79" y2="1150.12" style="fill:none;stroke:#00AEEF;stroke-width:0.5;opacity:1.0;"/>
  <line id="right-margin" x1="1520.2083930759802" x2="1520.2083930759802" y1="1030.79" y2="1150.12" style="fill:none;stroke:#00AEEF;stroke-width:0.5;opacity:1.0;"/>
 </g>
 <g id="Symbols">
  <g id="Black-L" transform="matrix(1.0,0.0,0.0,1.0,2845.568872931985,1431.6588924632354)">  <path stroke-linecap="butt" stroke="none" fill-opacity="1" stroke-width="1px" stroke-linejoin="miter" stroke-dasharray="none" enable-background="new 0 0 2000 2000" stroke-opacity="1" fill="#000000" fill-rule="nonzero" stroke-miterlimit="4" d="M144.969,21.282C142.609,18.489,139.435,16.95,136.03,16.95C136.029,16.95,136.025,16.95,136.022,16.95C136.021,16.95,136.019,16.95,136.019,16.95L42.063,17.042C38.655,17.046,35.481,18.589,33.124,21.387C30.878,24.055,29.642,27.573,29.646,31.292L29.768,156.48C29.77,158.443,30.607,160.017,32.065,160.799C32.668,161.122,33.324,161.282,34.002,161.282C34.966,161.282,35.974,160.959,36.934,160.322L77.858,133.192C78.62,132.687,80.173,132.686,80.936,133.189L121.913,160.239C123.551,161.321,125.326,161.491,126.783,160.707C128.239,159.922,129.073,158.346,129.072,156.383L128.952,33.868L145.793,33.851C146.502,33.851,147.181,33.568,147.682,33.067C148.183,32.565,148.464,31.884,148.463,31.175C148.46,27.458,147.219,23.945,144.969,21.282ZM83.882,128.727C81.321,127.037,77.461,127.041,74.904,128.736L35.114,155.115L34.993,31.286C34.99,28.828,35.779,26.535,37.214,24.831C38.539,23.258,40.263,22.391,42.068,22.389L126.306,22.307C124.552,24.823,123.599,27.933,123.603,31.2L123.603,31.2L123.603,31.2L123.603,31.2L123.603,31.2L123.724,155.028L83.882,128.727ZM129.273,28.521C129.629,27.099,130.274,25.804,131.17,24.739C132.495,23.166,134.219,22.299,136.03,22.297C139.191,22.297,141.877,24.911,142.787,28.508L129.273,28.521ZM129.273,28.521"/>
</g>
  <g id="Heavy-L" transform="matrix(1.0,0.0,0.0,1.0,2548.858872931985,1431.6588924632354)">  <path stroke="none" stroke-linejoin="miter" fill-rule="nonzero" stroke-width="1px" stroke-opacity="1" enable-background="new 0 0 2000 2000" stroke-linecap="butt" fill="#000000" fill-opacity="1" stroke-dasharray="none" stroke-miterlimit="4" d="M144.969,21.282C142.609,18.489,139.435,16.95,136.03,16.95C136.029,16.95,136.025,16.95,136.022,16.95C136.021,16.95,136.019,16.95,136.019,16.95L42.063,17.042C38.655,17.046,35.481,18.589,33.124,21.387C30.878,24.055,29.642,27.573,29.646,31.292L29.768,156.48C29.77,158.443,30.607,160.017,32.065,160.799C32.668,161.122,33.324,161.282,34.002,161.282C34.966,161.282,35.974,160.959,36.934,160.322L77.858,133.192C78.62,132.687,80.173,132.686,80.936,133.189L121.913,160.239C123.551,161.321,125.326,161.491,126.783,160.707C128.239,159.922,129.073,158.346,129.072,156.383L128.952,33.868L145.793,33.851C146.502,33.851,147.181,33.568,147.682,33.067C148.183,32.565,148.464,31.884,148.463,31.175C148.46,27.458,147.219,23.945,144.969,21.282ZM83.882,128.727C81.321,127.037,77.461,127.041,74.904,128.736L35.114,155.115L34.993,31.286C34.99,28.828,35.779,26.535,37.214,24.831C38.539,23.258,40.263,22.391,42.068,22.389L126.306,22.307C124.552,24.823,123.599,27.933,123.603,31.2L123.603,31.2L123.603,31.2L123.603,31.2L123.603,31.2L123.724,155.028L83.882,128.727ZM129.273,28.521C129.629,27.099,130.274,25.804,131.17,24.739C132.495,23.166,134.219,22.299,136.03,22.297C139.191,22.297,141.877,24.911,142.787,28.508L129.273,28.521ZM129.273,28.521"/>
</g>
  <g id="Bold-L" transform="matrix(1.0,0.0,0.0,1.0,2252.148872931985,1431.6588924632354)">  <path stroke-opacity="1" stroke-dasharray="none" stroke-width="1px" stroke-miterlimit="4" stroke-linejoin="miter" fill-opacity="1" fill-rule="nonzero" stroke="none" fill="#000000" stroke-linecap="butt" enable-background="new 0 0 2000 2000" d="M144.969,21.282C142.609,18.489,139.435,16.95,136.03,16.95C136.029,16.95,136.025,16.95,136.022,16.95C136.021,16.95,136.019,16.95,136.019,16.95L42.063,17.042C38.655,17.046,35.481,18.589,33.124,21.387C30.878,24.055,29.642,27.573,29.646,31.292L29.768,156.48C29.77,158.443,30.607,160.017,32.065,160.799C32.668,161.122,33.324,161.282,34.002,161.282C34.966,161.282,35.974,160.959,36.934,160.322L77.858,133.192C78.62,132.687,80.173,132.686,80.936,133.189L121.913,160.239C123.551,161.321,125.326,161.491,126.783,160.707C128.239,159.922,129.073,158.346,129.072,156.383L128.952,33.868L145.793,33.851C146.502,33.851,147.181,33.568,147.682,33.067C148.183,32.565,148.464,31.884,148.463,31.175C148.46,27.458,147.219,23.945,144.969,21.282ZM83.882,128.727C81.321,127.037,77.461,127.041,74.904,128.736L35.114,155.115L34.993,31.286C34.99,28.828,35.779,26.535,37.214,24.831C38.539,23.258,40.263,22.391,42.068,22.389L126.306,22.307C124.552,24.823,123.599,27.933,123.603,31.2L123.603,31.2L123.603,31.2L123.603,31.2L123.603,31.2L123.724,155.028L83.882,128.727ZM129.273,28.521C129.629,27.099,130.274,25.804,131.17,24.739C132.495,23.166,134.219,22.299,136.03,22.297C139.191,22.297,141.877,24.911,142.787,28.508L129.273,28.521ZM129.273,28.521"/>
</g>
  <g id="Semibold-L" transform="matrix(1.0,0.0,0.0,1.0,1955.4388729319853,1431.6588924632354)">  <path stroke-width="1px" fill-rule="nonzero" stroke="none" stroke-opacity="1" stroke-miterlimit="4" stroke-dasharray="none" stroke-linejoin="miter" stroke-linecap="butt" fill="#000000" fill-opacity="1" enable-background="new 0 0 2000 2000" d="M144.969,21.282C142.609,18.489,139.435,16.95,136.03,16.95C136.029,16.95,136.025,16.95,136.022,16.95C136.021,16.95,136.019,16.95,136.019,16.95L42.063,17.042C38.655,17.046,35.481,18.589,33.124,21.387C30.878,24.055,29.642,27.573,29.646,31.292L29.768,156.48C29.77,158.443,30.607,160.017,32.065,160.799C32.668,161.122,33.324,161.282,34.002,161.282C34.966,161.282,35.974,160.959,36.934,160.322L77.858,133.192C78.62,132.687,80.173,132.686,80.936,133.189L121.913,160.239C123.551,161.321,125.326,161.491,126.783,160.707C128.239,159.922,129.073,158.346,129.072,156.383L128.952,33.868L145.793,33.851C146.502,33.851,147.181,33.568,147.682,33.067C148.183,32.565,148.464,31.884,148.463,31.175C148.46,27.458,147.219,23.945,144.969,21.282ZM83.882,128.727C81.321,127.037,77.461,127.041,74.904,128.736L35.114,155.115L34.993,31.286C34.99,28.828,35.779,26.535,37.214,24.831C38.539,23.258,40.263,22.391,42.068,22.389L126.306,22.307C124.552,24.823,123.599,27.933,123.603,31.2L123.603,31.2L123.603,31.2L123.603,31.2L123.603,31.2L123.724,155.028L83.882,128.727ZM129.273,28.521C129.629,27.099,130.274,25.804,131.17,24.739C132.495,23.166,134.219,22.299,136.03,22.297C139.191,22.297,141.877,24.911,142.787,28.508L129.273,28.521ZM129.273,28.521"/>
</g>
  <g id="Medium-L" transform="matrix(1.0,0.0,0.0,1.0,1658.7288729319853,1431.6588924632354)">  <path fill-opacity="1" fill="#000000" enable-background="new 0 0 2000 2000" stroke-opacity="1" stroke-miterlimit="4" stroke-linecap="butt" fill-rule="nonzero" stroke="none" stroke-dasharray="none" stroke-linejoin="miter" stroke-width="1px" d="M144.969,21.282C142.609,18.489,139.435,16.95,136.03,16.95C136.029,16.95,136.025,16.95,136.022,16.95C136.021,16.95,136.019,16.95,136.019,16.95L42.063,17.042C38.655,17.046,35.481,18.589,33.124,21.387C30.878,24.055,29.642,27.573,29.646,31.292L29.768,156.48C29.77,158.443,30.607,160.017,32.065,160.799C32.668,161.122,33.324,161.282,34.002,161.282C34.966,161.282,35.974,160.959,36.934,160.322L77.858,133.192C78.62,132.687,80.173,132.686,80.936,133.189L121.913,160.239C123.551,161.321,125.326,161.491,126.783,160.707C128.239,159.922,129.073,158.346,129.072,156.383L128.952,33.868L145.793,33.851C146.502,33.851,147.181,33.568,147.682,33.067C148.183,32.565,148.464,31.884,148.463,31.175C148.46,27.458,147.219,23.945,144.969,21.282ZM83.882,128.727C81.321,127.037,77.461,127.041,74.904,128.736L35.114,155.115L34.993,31.286C34.99,28.828,35.779,26.535,37.214,24.831C38.539,23.258,40.263,22.391,42.068,22.389L126.306,22.307C124.552,24.823,123.599,27.933,123.603,31.2L123.603,31.2L123.603,31.2L123.603,31.2L123.603,31.2L123.724,155.028L83.882,128.727ZM129.273,28.521C129.629,27.099,130.274,25.804,131.17,24.739C132.495,23.166,134.219,22.299,136.03,22.297C139.191,22.297,141.877,24.911,142.787,28.508L129.273,28.521ZM129.273,28.521"/>
</g>
  <g id="Regular-L" transform="matrix(1.0,0.0,0.0,1.0,1362.0188729319852,1431.6588924632354)">  <path stroke-dasharray="none" fill-rule="nonzero" stroke-linejoin="miter" fill-opacity="1" stroke-width="1px" stroke-miterlimit="4" stroke="none" stroke-linecap="butt" stroke-opacity="1" fill="#000000" enable-background="new 0 0 2000 2000" d="M144.969,21.282C142.609,18.489,139.435,16.95,136.03,16.95C136.029,16.95,136.025,16.95,136.022,16.95C136.021,16.95,136.019,16.95,136.019,16.95L42.063,17.042C38.655,17.046,35.481,18.589,33.124,21.387C30.878,24.055,29.642,27.573,29.646,31.292L29.768,156.48C29.77,158.443,30.607,160.017,32.065,160.799C32.668,161.122,33.324,161.282,34.002,161.282C34.966,161.282,35.974,160.959,36.934,160.322L77.858,133.192C78.62,132.687,80.173,132.686,80.936,133.189L121.913,160.239C123.551,161.321,125.326,161.491,126.783,160.707C128.239,159.922,129.073,158.346,129.072,156.383L128.952,33.868L145.793,33.851C146.502,33.851,147.181,33.568,147.682,33.067C148.183,32.565,148.464,31.884,148.463,31.175C148.46,27.458,147.219,23.945,144.969,21.282ZM83.882,128.727C81.321,127.037,77.461,127.041,74.904,128.736L35.114,155.115L34.993,31.286C34.99,28.828,35.779,26.535,37.214,24.831C38.539,23.258,40.263,22.391,42.068,22.389L126.306,22.307C124.552,24.823,123.599,27.933,123.603,31.2L123.603,31.2L123.603,31.2L123.603,31.2L123.603,31.2L123.724,155.028L83.882,128.727ZM129.273,28.521C129.629,27.099,130.274,25.804,131.17,24.739C132.495,23.166,134.219,22.299,136.03,22.297C139.191,22.297,141.877,24.911,142.787,28.508L129.273,28.521ZM129.273,28.521"/>
</g>
  <g id="Light-L" transform="matrix(1.0,0.0,0.0,1.0,1065.3088729319854,1431.6588924632354)">  <path stroke-linejoin="miter" stroke-linecap="butt" stroke-dasharray="none" stroke-miterlimit="4" stroke-width="1px" fill-rule="nonzero" enable-background="new 0 0 2000 2000" fill-opacity="1" fill="#000000" stroke-opacity="1" stroke="none" d="M144.969,21.282C142.609,18.489,139.435,16.95,136.03,16.95C136.029,16.95,136.025,16.95,136.022,16.95C136.021,16.95,136.019,16.95,136.019,16.95L42.063,17.042C38.655,17.046,35.481,18.589,33.124,21.387C30.878,24.055,29.642,27.573,29.646,31.292L29.768,156.48C29.77,158.443,30.607,160.017,32.065,160.799C32.668,161.122,33.324,161.282,34.002,161.282C34.966,161.282,35.974,160.959,36.934,160.322L77.858,133.192C78.62,132.687,80.173,132.686,80.936,133.189L121.913,160.239C123.551,161.321,125.326,161.491,126.783,160.707C128.239,159.922,129.073,158.346,129.072,156.383L128.952,33.868L145.793,33.851C146.502,33.851,147.181,33.568,147.682,33.067C148.183,32.565,148.464,31.884,148.463,31.175C148.46,27.458,147.219,23.945,144.969,21.282ZM83.882,128.727C81.321,127.037,77.461,127.041,74.904,128.736L35.114,155.115L34.993,31.286C34.99,28.828,35.779,26.535,37.214,24.831C38.539,23.258,40.263,22.391,42.068,22.389L126.306,22.307C124.552,24.823,123.599,27.933,123.603,31.2L123.603,31.2L123.603,31.2L123.603,31.2L123.603,31.2L123.724,155.028L83.882,128.727ZM129.273,28.521C129.629,27.099,130.274,25.804,131.17,24.739C132.495,23.166,134.219,22.299,136.03,22.297C139.191,22.297,141.877,24.911,142.787,28.508L129.273,28.521ZM129.273,28.521"/>
</g>
  <g id="Thin-L" transform="matrix(1.0,0.0,0.0,1.0,768.5988729319854,1431.6588924632354)">  <path stroke-width="1px" fill="#000000" fill-rule="nonzero" stroke-opacity="1" stroke-miterlimit="4" stroke="none" stroke-linejoin="miter" stroke-dasharray="none" stroke-linecap="butt" fill-opacity="1" enable-background="new 0 0 2000 2000" d="M144.969,21.282C142.609,18.489,139.435,16.95,136.03,16.95C136.029,16.95,136.025,16.95,136.022,16.95C136.021,16.95,136.019,16.95,136.019,16.95L42.063,17.042C38.655,17.046,35.481,18.589,33.124,21.387C30.878,24.055,29.642,27.573,29.646,31.292L29.768,156.48C29.77,158.443,30.607,160.017,32.065,160.799C32.668,161.122,33.324,161.282,34.002,161.282C34.966,161.282,35.974,160.959,36.934,160.322L77.858,133.192C78.62,132.687,80.173,132.686,80.936,133.189L121.913,160.239C123.551,161.321,125.326,161.491,126.783,160.707C128.239,159.922,129.073,158.346,129.072,156.383L128.952,33.868L145.793,33.851C146.502,33.851,147.181,33.568,147.682,33.067C148.183,32.565,148.464,31.884,148.463,31.175C148.46,27.458,147.219,23.945,144.969,21.282ZM83.882,128.727C81.321,127.037,77.461,127.041,74.904,128.736L35.114,155.115L34.993,31.286C34.99,28.828,35.779,26.535,37.214,24.831C38.539,23.258,40.263,22.391,42.068,22.389L126.306,22.307C124.552,24.823,123.599,27.933,123.603,31.2L123.603,31.2L123.603,31.2L123.603,31.2L123.603,31.2L123.724,155.028L83.882,128.727ZM129.273,28.521C129.629,27.099,130.274,25.804,131.17,24.739C132.495,23.166,134.219,22.299,136.03,22.297C139.191,22.297,141.877,24.911,142.787,28.508L129.273,28.521ZM129.273,28.521"/>
</g>
  <g id="Ultralight-L" transform="matrix(1.0,0.0,0.0,1.0,471.8888729319853,1431.6588924632354)">  <path stroke-miterlimit="4" stroke="none" stroke-opacity="1" fill="#000000" stroke-linecap="butt" stroke-width="1px" enable-background="new 0 0 2000 2000" stroke-linejoin="miter" fill-rule="nonzero" fill-opacity="1" stroke-dasharray="none" d="M144.969,21.282C142.609,18.489,139.435,16.95,136.03,16.95C136.029,16.95,136.025,16.95,136.022,16.95C136.021,16.95,136.019,16.95,136.019,16.95L42.063,17.042C38.655,17.046,35.481,18.589,33.124,21.387C30.878,24.055,29.642,27.573,29.646,31.292L29.768,156.48C29.77,158.443,30.607,160.017,32.065,160.799C32.668,161.122,33.324,161.282,34.002,161.282C34.966,161.282,35.974,160.959,36.934,160.322L77.858,133.192C78.62,132.687,80.173,132.686,80.936,133.189L121.913,160.239C123.551,161.321,125.326,161.491,126.783,160.707C128.239,159.922,129.073,158.346,129.072,156.383L128.952,33.868L145.793,33.851C146.502,33.851,147.181,33.568,147.682,33.067C148.183,32.565,148.464,31.884,148.463,31.175C148.46,27.458,147.219,23.945,144.969,21.282ZM83.882,128.727C81.321,127.037,77.461,127.041,74.904,128.736L35.114,155.115L34.993,31.286C34.99,28.828,35.779,26.535,37.214,24.831C38.539,23.258,40.263,22.391,42.068,22.389L126.306,22.307C124.552,24.823,123.599,27.933,123.603,31.2L123.603,31.2L123.603,31.2L123.603,31.2L123.603,31.2L123.724,155.028L83.882,128.727ZM129.273,28.521C129.629,27.099,130.274,25.804,131.17,24.739C132.495,23.166,134.219,22.299,136.03,22.297C139.191,22.297,141.877,24.911,142.787,28.508L129.273,28.521ZM129.273,28.521"/>
</g>
  <g id="Black-M" transform="matrix(1.0,0.0,0.0,1.0,2865.6016069240195,1021.6916264552697)">  <path stroke-linecap="butt" stroke="none" fill-opacity="1" stroke-width="1px" stroke-linejoin="miter" stroke-dasharray="none" enable-background="new 0 0 2000 2000" stroke-opacity="1" fill="#000000" fill-rule="nonzero" stroke-miterlimit="4" d="M112.379,16.498C110.55,14.332,108.089,13.14,105.45,13.14C105.449,13.14,105.445,13.14,105.443,13.14C105.442,13.14,105.441,13.14,105.441,13.14L32.607,13.211C29.965,13.214,27.505,14.41,25.678,16.579C23.936,18.647,22.979,21.374,22.981,24.257L23.076,121.302C23.078,122.824,23.727,124.044,24.857,124.65C25.324,124.901,25.833,125.025,26.358,125.025C27.105,125.025,27.887,124.775,28.631,124.281L60.355,103.25C60.946,102.858,62.15,102.857,62.741,103.248L94.506,124.217C95.776,125.055,97.152,125.187,98.281,124.579C99.41,123.971,100.057,122.749,100.055,121.227L99.963,26.254L113.017,26.241C113.567,26.241,114.094,26.022,114.482,25.633C114.871,25.244,115.088,24.717,115.088,24.167C115.085,21.286,114.123,18.562,112.379,16.498ZM65.024,99.788C63.039,98.478,60.047,98.481,58.065,99.795L27.22,120.244L27.126,24.253C27.124,22.347,27.736,20.57,28.848,19.249C29.875,18.029,31.211,17.357,32.611,17.356L97.912,17.292C96.552,19.243,95.813,21.654,95.816,24.186L95.816,24.186L95.816,24.186L95.816,24.186L95.816,24.186L95.91,120.177L65.024,99.788ZM100.211,22.109C100.488,21.007,100.987,20.003,101.683,19.178C102.71,17.958,104.046,17.286,105.45,17.285C107.9,17.285,109.982,19.311,110.687,22.099L100.211,22.109ZM100.211,22.109"/>
</g>
  <g id="Heavy-M" transform="matrix(1.0,0.0,0.0,1.0,2568.8916069240195,1021.6916264552697)">  <path stroke="none" stroke-linejoin="miter" fill-rule="nonzero" stroke-width="1px" stroke-opacity="1" enable-background="new 0 0 2000 2000" stroke-linecap="butt" fill="#000000" fill-opacity="1" stroke-dasharray="none" stroke-miterlimit="4" d="M112.379,16.498C110.55,14.332,108.089,13.14,105.45,13.14C105.449,13.14,105.445,13.14,105.443,13.14C105.442,13.14,105.441,13.14,105.441,13.14L32.607,13.211C29.965,13.214,27.505,14.41,25.678,16.579C23.936,18.647,22.979,21.374,22.981,24.257L23.076,121.302C23.078,122.824,23.727,124.044,24.857,124.65C25.324,124.901,25.833,125.025,26.358,125.025C27.105,125.025,27.887,124.775,28.631,124.281L60.355,103.25C60.946,102.858,62.15,102.857,62.741,103.248L94.506,124.217C95.776,125.055,97.152,125.187,98.281,124.579C99.41,123.971,100.057,122.749,100.055,121.227L99.963,26.254L113.017,26.241C113.567,26.241,114.094,26.022,114.482,25.633C114.871,25.244,115.088,24.717,115.088,24.167C115.085,21.286,114.123,18.562,112.379,16.498ZM65.024,99.788C63.039,98.478,60.047,98.481,58.065,99.795L27.22,120.244L27.126,24.253C27.124,22.347,27.736,20.57,28.848,19.249C29.875,18.029,31.211,17.357,32.611,17.356L97.912,17.292C96.552,19.243,95.813,21.654,95.816,24.186L95.816,24.186L95.816,24.186L95.816,24.186L95.816,24.186L95.91,120.177L65.024,99.788ZM100.211,22.109C100.488,21.007,100.987,20.003,101.683,19.178C102.71,17.958,104.046,17.286,105.45,17.285C107.9,17.285,109.982,19.311,110.687,22.099L100.211,22.109ZM100.211,22.109"/>
</g>
  <g id="Bold-M" transform="matrix(1.0,0.0,0.0,1.0,2272.1816069240194,1021.6916264552697)">  <path stroke-opacity="1" stroke-dasharray="none" stroke-width="1px" stroke-miterlimit="4" stroke-linejoin="miter" fill-opacity="1" fill-rule="nonzero" stroke="none" fill="#000000" stroke-linecap="butt" enable-background="new 0 0 2000 2000" d="M112.379,16.498C110.55,14.332,108.089,13.14,105.45,13.14C105.449,13.14,105.445,13.14,105.443,13.14C105.442,13.14,105.441,13.14,105.441,13.14L32.607,13.211C29.965,13.214,27.505,14.41,25.678,16.579C23.936,18.647,22.979,21.374,22.981,24.257L23.076,121.302C23.078,122.824,23.727,124.044,24.857,124.65C25.324,124.901,25.833,125.025,26.358,125.025C27.105,125.025,27.887,124.775,28.631,124.281L60.355,103.25C60.946,102.858,62.15,102.857,62.741,103.248L94.506,124.217C95.776,125.055,97.152,125.187,98.281,124.579C99.41,123.971,100.057,122.749,100.055,121.227L99.963,26.254L113.017,26.241C113.567,26.241,114.094,26.022,114.482,25.633C114.871,25.244,115.088,24.717,115.088,24.167C115.085,21.286,114.123,18.562,112.379,16.498ZM65.024,99.788C63.039,98.478,60.047,98.481,58.065,99.795L27.22,120.244L27.126,24.253C27.124,22.347,27.736,20.57,28.848,19.249C29.875,18.029,31.211,17.357,32.611,17.356L97.912,17.292C96.552,19.243,95.813,21.654,95.816,24.186L95.816,24.186L95.816,24.186L95.816,24.186L95.816,24.186L95.91,120.177L65.024,99.788ZM100.211,22.109C100.488,21.007,100.987,20.003,101.683,19.178C102.71,17.958,104.046,17.286,105.45,17.285C107.9,17.285,109.982,19.311,110.687,22.099L100.211,22.109ZM100.211,22.109"/>
</g>
  <g id="Semibold-M" transform="matrix(1.0,0.0,0.0,1.0,1975.4716069240196,1021.6916264552697)">  <path stroke-width="1px" fill-rule="nonzero" stroke="none" stroke-opacity="1" stroke-miterlimit="4" stroke-dasharray="none" stroke-linejoin="miter" stroke-linecap="butt" fill="#000000" fill-opacity="1" enable-background="new 0 0 2000 2000" d="M112.379,16.498C110.55,14.332,108.089,13.14,105.45,13.14C105.449,13.14,105.445,13.14,105.443,13.14C105.442,13.14,105.441,13.14,105.441,13.14L32.607,13.211C29.965,13.214,27.505,14.41,25.678,16.579C23.936,18.647,22.979,21.374,22.981,24.257L23.076,121.302C23.078,122.824,23.727,124.044,24.857,124.65C25.324,124.901,25.833,125.025,26.358,125.025C27.105,125.025,27.887,124.775,28.631,124.281L60.355,103.25C60.946,102.858,62.15,102.857,62.741,103.248L94.506,124.217C95.776,125.055,97.152,125.187,98.281,124.579C99.41,123.971,100.057,122.749,100.055,121.227L99.963,26.254L113.017,26.241C113.567,26.241,114.094,26.022,114.482,25.633C114.871,25.244,115.088,24.717,115.088,24.167C115.085,21.286,114.123,18.562,112.379,16.498ZM65.024,99.788C63.039,98.478,60.047,98.481,58.065,99.795L27.22,120.244L27.126,24.253C27.124,22.347,27.736,20.57,28.848,19.249C29.875,18.029,31.211,17.357,32.611,17.356L97.912,17.292C96.552,19.243,95.813,21.654,95.816,24.186L95.816,24.186L95.816,24.186L95.816,24.186L95.816,24.186L95.91,120.177L65.024,99.788ZM100.211,22.109C100.488,21.007,100.987,20.003,101.683,19.178C102.71,17.958,104.046,17.286,105.45,17.285C107.9,17.285,109.982,19.311,110.687,22.099L100.211,22.109ZM100.211,22.109"/>
</g>
  <g id="Medium-M" transform="matrix(1.0,0.0,0.0,1.0,1678.7616069240196,1021.6916264552697)">  <path fill-opacity="1" fill="#000000" enable-background="new 0 0 2000 2000" stroke-opacity="1" stroke-miterlimit="4" stroke-linecap="butt" fill-rule="nonzero" stroke="none" stroke-dasharray="none" stroke-linejoin="miter" stroke-width="1px" d="M112.379,16.498C110.55,14.332,108.089,13.14,105.45,13.14C105.449,13.14,105.445,13.14,105.443,13.14C105.442,13.14,105.441,13.14,105.441,13.14L32.607,13.211C29.965,13.214,27.505,14.41,25.678,16.579C23.936,18.647,22.979,21.374,22.981,24.257L23.076,121.302C23.078,122.824,23.727,124.044,24.857,124.65C25.324,124.901,25.833,125.025,26.358,125.025C27.105,125.025,27.887,124.775,28.631,124.281L60.355,103.25C60.946,102.858,62.15,102.857,62.741,103.248L94.506,124.217C95.776,125.055,97.152,125.187,98.281,124.579C99.41,123.971,100.057,122.749,100.055,121.227L99.963,26.254L113.017,26.241C113.567,26.241,114.094,26.022,114.482,25.633C114.871,25.244,115.088,24.717,115.088,24.167C115.085,21.286,114.123,18.562,112.379,16.498ZM65.024,99.788C63.039,98.478,60.047,98.481,58.065,99.795L27.22,120.244L27.126,24.253C27.124,22.347,27.736,20.57,28.848,19.249C29.875,18.029,31.211,17.357,32.611,17.356L97.912,17.292C96.552,19.243,95.813,21.654,95.816,24.186L95.816,24.186L95.816,24.186L95.816,24.186L95.816,24.186L95.91,120.177L65.024,99.788ZM100.211,22.109C100.488,21.007,100.987,20.003,101.683,19.178C102.71,17.958,104.046,17.286,105.45,17.285C107.9,17.285,109.982,19.311,110.687,22.099L100.211,22.109ZM100.211,22.109"/>
</g>
  <g id="Regular-M" transform="matrix(1.0,0.0,0.0,1.0,1382.0516069240196,1021.6916264552697)">  <path stroke-dasharray="none" fill-rule="nonzero" stroke-linejoin="miter" fill-opacity="1" stroke-width="1px" stroke-miterlimit="4" stroke="none" stroke-linecap="butt" stroke-opacity="1" fill="#000000" enable-background="new 0 0 2000 2000" d="M112.379,16.498C110.55,14.332,108.089,13.14,105.45,13.14C105.449,13.14,105.445,13.14,105.443,13.14C105.442,13.14,105.441,13.14,105.441,13.14L32.607,13.211C29.965,13.214,27.505,14.41,25.678,16.579C23.936,18.647,22.979,21.374,22.981,24.257L23.076,121.302C23.078,122.824,23.727,124.044,24.857,124.65C25.324,124.901,25.833,125.025,26.358,125.025C27.105,125.025,27.887,124.775,28.631,124.281L60.355,103.25C60.946,102.858,62.15,102.857,62.741,103.248L94.506,124.217C95.776,125.055,97.152,125.187,98.281,124.579C99.41,123.971,100.057,122.749,100.055,121.227L99.963,26.254L113.017,26.241C113.567,26.241,114.094,26.022,114.482,25.633C114.871,25.244,115.088,24.717,115.088,24.167C115.085,21.286,114.123,18.562,112.379,16.498ZM65.024,99.788C63.039,98.478,60.047,98.481,58.065,99.795L27.22,120.244L27.126,24.253C27.124,22.347,27.736,20.57,28.848,19.249C29.875,18.029,31.211,17.357,32.611,17.356L97.912,17.292C96.552,19.243,95.813,21.654,95.816,24.186L95.816,24.186L95.816,24.186L95.816,24.186L95.816,24.186L95.91,120.177L65.024,99.788ZM100.211,22.109C100.488,21.007,100.987,20.003,101.683,19.178C102.71,17.958,104.046,17.286,105.45,17.285C107.9,17.285,109.982,19.311,110.687,22.099L100.211,22.109ZM100.211,22.109"/>
</g>
  <g id="Light-M" transform="matrix(1.0,0.0,0.0,1.0,1085.3416069240197,1021.6916264552697)">  <path stroke-linejoin="miter" stroke-linecap="butt" stroke-dasharray="none" stroke-miterlimit="4" stroke-width="1px" fill-rule="nonzero" enable-background="new 0 0 2000 2000" fill-opacity="1" fill="#000000" stroke-opacity="1" stroke="none" d="M112.379,16.498C110.55,14.332,108.089,13.14,105.45,13.14C105.449,13.14,105.445,13.14,105.443,13.14C105.442,13.14,105.441,13.14,105.441,13.14L32.607,13.211C29.965,13.214,27.505,14.41,25.678,16.579C23.936,18.647,22.979,21.374,22.981,24.257L23.076,121.302C23.078,122.824,23.727,124.044,24.857,124.65C25.324,124.901,25.833,125.025,26.358,125.025C27.105,125.025,27.887,124.775,28.631,124.281L60.355,103.25C60.946,102.858,62.15,102.857,62.741,103.248L94.506,124.217C95.776,125.055,97.152,125.187,98.281,124.579C99.41,123.971,100.057,122.749,100.055,121.227L99.963,26.254L113.017,26.241C113.567,26.241,114.094,26.022,114.482,25.633C114.871,25.244,115.088,24.717,115.088,24.167C115.085,21.286,114.123,18.562,112.379,16.498ZM65.024,99.788C63.039,98.478,60.047,98.481,58.065,99.795L27.22,120.244L27.126,24.253C27.124,22.347,27.736,20.57,28.848,19.249C29.875,18.029,31.211,17.357,32.611,17.356L97.912,17.292C96.552,19.243,95.813,21.654,95.816,24.186L95.816,24.186L95.816,24.186L95.816,24.186L95.816,24.186L95.91,120.177L65.024,99.788ZM100.211,22.109C100.488,21.007,100.987,20.003,101.683,19.178C102.71,17.958,104.046,17.286,105.45,17.285C107.9,17.285,109.982,19.311,110.687,22.099L100.211,22.109ZM100.211,22.109"/>
</g>
  <g id="Thin-M" transform="matrix(1.0,0.0,0.0,1.0,788.6316069240197,1021.6916264552697)">  <path stroke-width="1px" fill="#000000" fill-rule="nonzero" stroke-opacity="1" stroke-miterlimit="4" stroke="none" stroke-linejoin="miter" stroke-dasharray="none" stroke-linecap="butt" fill-opacity="1" enable-background="new 0 0 2000 2000" d="M112.379,16.498C110.55,14.332,108.089,13.14,105.45,13.14C105.449,13.14,105.445,13.14,105.443,13.14C105.442,13.14,105.441,13.14,105.441,13.14L32.607,13.211C29.965,13.214,27.505,14.41,25.678,16.579C23.936,18.647,22.979,21.374,22.981,24.257L23.076,121.302C23.078,122.824,23.727,124.044,24.857,124.65C25.324,124.901,25.833,125.025,26.358,125.025C27.105,125.025,27.887,124.775,28.631,124.281L60.355,103.25C60.946,102.858,62.15,102.857,62.741,103.248L94.506,124.217C95.776,125.055,97.152,125.187,98.281,124.579C99.41,123.971,100.057,122.749,100.055,121.227L99.963,26.254L113.017,26.241C113.567,26.241,114.094,26.022,114.482,25.633C114.871,25.244,115.088,24.717,115.088,24.167C115.085,21.286,114.123,18.562,112.379,16.498ZM65.024,99.788C63.039,98.478,60.047,98.481,58.065,99.795L27.22,120.244L27.126,24.253C27.124,22.347,27.736,20.57,28.848,19.249C29.875,18.029,31.211,17.357,32.611,17.356L97.912,17.292C96.552,19.243,95.813,21.654,95.816,24.186L95.816,24.186L95.816,24.186L95.816,24.186L95.816,24.186L95.91,120.177L65.024,99.788ZM100.211,22.109C100.488,21.007,100.987,20.003,101.683,19.178C102.71,17.958,104.046,17.286,105.45,17.285C107.9,17.285,109.982,19.311,110.687,22.099L100.211,22.109ZM100.211,22.109"/>
</g>
  <g id="Ultralight-M" transform="matrix(1.0,0.0,0.0,1.0,491.9216069240196,1021.6916264552697)">  <path stroke-miterlimit="4" stroke="none" stroke-opacity="1" fill="#000000" stroke-linecap="butt" stroke-width="1px" enable-background="new 0 0 2000 2000" stroke-linejoin="miter" fill-rule="nonzero" fill-opacity="1" stroke-dasharray="none" d="M112.379,16.498C110.55,14.332,108.089,13.14,105.45,13.14C105.449,13.14,105.445,13.14,105.443,13.14C105.442,13.14,105.441,13.14,105.441,13.14L32.607,13.211C29.965,13.214,27.505,14.41,25.678,16.579C23.936,18.647,22.979,21.374,22.981,24.257L23.076,121.302C23.078,122.824,23.727,124.044,24.857,124.65C25.324,124.901,25.833,125.025,26.358,125.025C27.105,125.025,27.887,124.775,28.631,124.281L60.355,103.25C60.946,102.858,62.15,102.857,62.741,103.248L94.506,124.217C95.776,125.055,97.152,125.187,98.281,124.579C99.41,123.971,100.057,122.749,100.055,121.227L99.963,26.254L113.017,26.241C113.567,26.241,114.094,26.022,114.482,25.633C114.871,25.244,115.088,24.717,115.088,24.167C115.085,21.286,114.123,18.562,112.379,16.498ZM65.024,99.788C63.039,98.478,60.047,98.481,58.065,99.795L27.22,120.244L27.126,24.253C27.124,22.347,27.736,20.57,28.848,19.249C29.875,18.029,31.211,17.357,32.611,17.356L97.912,17.292C96.552,19.243,95.813,21.654,95.816,24.186L95.816,24.186L95.816,24.186L95.816,24.186L95.816,24.186L95.91,120.177L65.024,99.788ZM100.211,22.109C100.488,21.007,100.987,20.003,101.683,19.178C102.71,17.958,104.046,17.286,105.45,17.285C107.9,17.285,109.982,19.311,110.687,22.099L100.211,22.109ZM100.211,22.109"/>
</g>
  <g id="Black-S" transform="matrix(1.0,0.0,0.0,1.0,2880.5916182215074,606.6816377527573)">  <path stroke-linecap="butt" stroke="none" fill-opacity="1" stroke-width="1px" stroke-linejoin="miter" stroke-dasharray="none" enable-background="new 0 0 2000 2000" stroke-opacity="1" fill="#000000" fill-rule="nonzero" stroke-miterlimit="4" d="M87.993,12.918C86.561,11.222,84.634,10.289,82.567,10.289C82.567,10.289,82.564,10.289,82.562,10.289C82.561,10.289,82.561,10.289,82.56,10.289L25.531,10.344C23.463,10.346,21.536,11.283,20.106,12.982C18.742,14.601,17.992,16.736,17.994,18.993L18.069,94.98C18.07,96.171,18.578,97.127,19.463,97.601C19.829,97.797,20.227,97.894,20.639,97.894C21.224,97.894,21.835,97.698,22.418,97.312L47.258,80.845C47.72,80.538,48.663,80.537,49.126,80.843L73.998,97.262C74.993,97.918,76.07,98.021,76.954,97.545C77.838,97.069,78.345,96.112,78.343,94.921L78.271,20.557L88.493,20.547C88.923,20.547,89.336,20.375,89.64,20.071C89.944,19.766,90.114,19.353,90.114,18.923C90.112,16.667,89.358,14.534,87.993,12.918ZM50.914,78.134C49.36,77.108,47.017,77.111,45.465,78.14L21.313,94.151L21.24,18.99C21.238,17.498,21.717,16.106,22.588,15.072C23.392,14.117,24.438,13.591,25.534,13.59L76.665,13.54C75.6,15.067,75.022,16.955,75.024,18.937L75.024,18.937L75.024,18.938L75.024,18.938L75.024,18.938L75.097,94.098L50.914,78.134ZM78.465,17.312C78.682,16.449,79.073,15.663,79.617,15.016C80.422,14.061,81.468,13.535,82.567,13.534C84.486,13.534,86.116,15.121,86.668,17.304L78.465,17.312ZM78.465,17.312"/>
</g>
  <g id="Heavy-S" transform="matrix(1.0,0.0,0.0,1.0,2583.8816182215073,606.6816377527573)">  <path stroke="none" stroke-linejoin="miter" fill-rule="nonzero" stroke-width="1px" stroke-opacity="1" enable-background="new 0 0 2000 2000" stroke-linecap="butt" fill="#000000" fill-opacity="1" stroke-dasharray="none" stroke-miterlimit="4" d="M87.993,12.918C86.561,11.222,84.634,10.289,82.567,10.289C82.567,10.289,82.564,10.289,82.562,10.289C82.561,10.289,82.561,10.289,82.56,10.289L25.531,10.344C23.463,10.346,21.536,11.283,20.106,12.982C18.742,14.601,17.992,16.736,17.994,18.993L18.069,94.98C18.07,96.171,18.578,97.127,19.463,97.601C19.829,97.797,20.227,97.894,20.639,97.894C21.224,97.894,21.835,97.698,22.418,97.312L47.258,80.845C47.72,80.538,48.663,80.537,49.126,80.843L73.998,97.262C74.993,97.918,76.07,98.021,76.954,97.545C77.838,97.069,78.345,96.112,78.343,94.921L78.271,20.557L88.493,20.547C88.923,20.547,89.336,20.375,89.64,20.071C89.944,19.766,90.114,19.353,90.114,18.923C90.112,16.667,89.358,14.534,87.993,12.918ZM50.914,78.134C49.36,77.108,47.017,77.111,45.465,78.14L21.313,94.151L21.24,18.99C21.238,17.498,21.717,16.106,22.588,15.072C23.392,14.117,24.438,13.591,25.534,13.59L76.665,13.54C75.6,15.067,75.022,16.955,75.024,18.937L75.024,18.937L75.024,18.938L75.024,18.938L75.024,18.938L75.097,94.098L50.914,78.134ZM78.465,17.312C78.682,16.449,79.073,15.663,79.617,15.016C80.422,14.061,81.468,13.535,82.567,13.534C84.486,13.534,86.116,15.121,86.668,17.304L78.465,17.312ZM78.465,17.312"/>
</g>
  <g id="Bold-S" transform="matrix(1.0,0.0,0.0,1.0,2287.1716182215073,606.6816377527573)">  <path stroke-opacity="1" stroke-dasharray="none" stroke-width="1px" stroke-miterlimit="4" stroke-linejoin="miter" fill-opacity="1" fill-rule="nonzero" stroke="none" fill="#000000" stroke-linecap="butt" enable-background="new 0 0 2000 2000" d="M87.993,12.918C86.561,11.222,84.634,10.289,82.567,10.289C82.567,10.289,82.564,10.289,82.562,10.289C82.561,10.289,82.561,10.289,82.56,10.289L25.531,10.344C23.463,10.346,21.536,11.283,20.106,12.982C18.742,14.601,17.992,16.736,17.994,18.993L18.069,94.98C18.07,96.171,18.578,97.127,19.463,97.601C19.829,97.797,20.227,97.894,20.639,97.894C21.224,97.894,21.835,97.698,22.418,97.312L47.258,80.845C47.72,80.538,48.663,80.537,49.126,80.843L73.998,97.262C74.993,97.918,76.07,98.021,76.954,97.545C77.838,97.069,78.345,96.112,78.343,94.921L78.271,20.557L88.493,20.547C88.923,20.547,89.336,20.375,89.64,20.071C89.944,19.766,90.114,19.353,90.114,18.923C90.112,16.667,89.358,14.534,87.993,12.918ZM50.914,78.134C49.36,77.108,47.017,77.111,45.465,78.14L21.313,94.151L21.24,18.99C21.238,17.498,21.717,16.106,22.588,15.072C23.392,14.117,24.438,13.591,25.534,13.59L76.665,13.54C75.6,15.067,75.022,16.955,75.024,18.937L75.024,18.937L75.024,18.938L75.024,18.938L75.024,18.938L75.097,94.098L50.914,78.134ZM78.465,17.312C78.682,16.449,79.073,15.663,79.617,15.016C80.422,14.061,81.468,13.535,82.567,13.534C84.486,13.534,86.116,15.121,86.668,17.304L78.465,17.312ZM78.465,17.312"/>
</g>
  <g id="Semibold-S" transform="matrix(1.0,0.0,0.0,1.0,1990.4616182215073,606.6816377527573)">  <path stroke-width="1px" fill-rule="nonzero" stroke="none" stroke-opacity="1" stroke-miterlimit="4" stroke-dasharray="none" stroke-linejoin="miter" stroke-linecap="butt" fill="#000000" fill-opacity="1" enable-background="new 0 0 2000 2000" d="M87.993,12.918C86.561,11.222,84.634,10.289,82.567,10.289C82.567,10.289,82.564,10.289,82.562,10.289C82.561,10.289,82.561,10.289,82.56,10.289L25.531,10.344C23.463,10.346,21.536,11.283,20.106,12.982C18.742,14.601,17.992,16.736,17.994,18.993L18.069,94.98C18.07,96.171,18.578,97.127,19.463,97.601C19.829,97.797,20.227,97.894,20.639,97.894C21.224,97.894,21.835,97.698,22.418,97.312L47.258,80.845C47.72,80.538,48.663,80.537,49.126,80.843L73.998,97.262C74.993,97.918,76.07,98.021,76.954,97.545C77.838,97.069,78.345,96.112,78.343,94.921L78.271,20.557L88.493,20.547C88.923,20.547,89.336,20.375,89.64,20.071C89.944,19.766,90.114,19.353,90.114,18.923C90.112,16.667,89.358,14.534,87.993,12.918ZM50.914,78.134C49.36,77.108,47.017,77.111,45.465,78.14L21.313,94.151L21.24,18.99C21.238,17.498,21.717,16.106,22.588,15.072C23.392,14.117,24.438,13.591,25.534,13.59L76.665,13.54C75.6,15.067,75.022,16.955,75.024,18.937L75.024,18.937L75.024,18.938L75.024,18.938L75.024,18.938L75.097,94.098L50.914,78.134ZM78.465,17.312C78.682,16.449,79.073,15.663,79.617,15.016C80.422,14.061,81.468,13.535,82.567,13.534C84.486,13.534,86.116,15.121,86.668,17.304L78.465,17.312ZM78.465,17.312"/>
</g>
  <g id="Medium-S" transform="matrix(1.0,0.0,0.0,1.0,1693.7516182215072,606.6816377527573)">  <path fill-opacity="1" fill="#000000" enable-background="new 0 0 2000 2000" stroke-opacity="1" stroke-miterlimit="4" stroke-linecap="butt" fill-rule="nonzero" stroke="none" stroke-dasharray="none" stroke-linejoin="miter" stroke-width="1px" d="M87.993,12.918C86.561,11.222,84.634,10.289,82.567,10.289C82.567,10.289,82.564,10.289,82.562,10.289C82.561,10.289,82.561,10.289,82.56,10.289L25.531,10.344C23.463,10.346,21.536,11.283,20.106,12.982C18.742,14.601,17.992,16.736,17.994,18.993L18.069,94.98C18.07,96.171,18.578,97.127,19.463,97.601C19.829,97.797,20.227,97.894,20.639,97.894C21.224,97.894,21.835,97.698,22.418,97.312L47.258,80.845C47.72,80.538,48.663,80.537,49.126,80.843L73.998,97.262C74.993,97.918,76.07,98.021,76.954,97.545C77.838,97.069,78.345,96.112,78.343,94.921L78.271,20.557L88.493,20.547C88.923,20.547,89.336,20.375,89.64,20.071C89.944,19.766,90.114,19.353,90.114,18.923C90.112,16.667,89.358,14.534,87.993,12.918ZM50.914,78.134C49.36,77.108,47.017,77.111,45.465,78.14L21.313,94.151L21.24,18.99C21.238,17.498,21.717,16.106,22.588,15.072C23.392,14.117,24.438,13.591,25.534,13.59L76.665,13.54C75.6,15.067,75.022,16.955,75.024,18.937L75.024,18.937L75.024,18.938L75.024,18.938L75.024,18.938L75.097,94.098L50.914,78.134ZM78.465,17.312C78.682,16.449,79.073,15.663,79.617,15.016C80.422,14.061,81.468,13.535,82.567,13.534C84.486,13.534,86.116,15.121,86.668,17.304L78.465,17.312ZM78.465,17.312"/>
</g>
  <g id="Regular-S" transform="matrix(1.0,0.0,0.0,1.0,1397.0416182215072,606.6816377527573)">  <path stroke-dasharray="none" fill-rule="nonzero" stroke-linejoin="miter" fill-opacity="1" stroke-width="1px" stroke-miterlimit="4" stroke="none" stroke-linecap="butt" stroke-opacity="1" fill="#000000" enable-background="new 0 0 2000 2000" d="M87.993,12.918C86.561,11.222,84.634,10.289,82.567,10.289C82.567,10.289,82.564,10.289,82.562,10.289C82.561,10.289,82.561,10.289,82.56,10.289L25.531,10.344C23.463,10.346,21.536,11.283,20.106,12.982C18.742,14.601,17.992,16.736,17.994,18.993L18.069,94.98C18.07,96.171,18.578,97.127,19.463,97.601C19.829,97.797,20.227,97.894,20.639,97.894C21.224,97.894,21.835,97.698,22.418,97.312L47.258,80.845C47.72,80.538,48.663,80.537,49.126,80.843L73.998,97.262C74.993,97.918,76.07,98.021,76.954,97.545C77.838,97.069,78.345,96.112,78.343,94.921L78.271,20.557L88.493,20.547C88.923,20.547,89.336,20.375,89.64,20.071C89.944,19.766,90.114,19.353,90.114,18.923C90.112,16.667,89.358,14.534,87.993,12.918ZM50.914,78.134C49.36,77.108,47.017,77.111,45.465,78.14L21.313,94.151L21.24,18.99C21.238,17.498,21.717,16.106,22.588,15.072C23.392,14.117,24.438,13.591,25.534,13.59L76.665,13.54C75.6,15.067,75.022,16.955,75.024,18.937L75.024,18.937L75.024,18.938L75.024,18.938L75.024,18.938L75.097,94.098L50.914,78.134ZM78.465,17.312C78.682,16.449,79.073,15.663,79.617,15.016C80.422,14.061,81.468,13.535,82.567,13.534C84.486,13.534,86.116,15.121,86.668,17.304L78.465,17.312ZM78.465,17.312"/>
</g>
  <g id="Light-S" transform="matrix(1.0,0.0,0.0,1.0,1100.3316182215074,606.6816377527573)">  <path stroke-linejoin="miter" stroke-linecap="butt" stroke-dasharray="none" stroke-miterlimit="4" stroke-width="1px" fill-rule="nonzero" enable-background="new 0 0 2000 2000" fill-opacity="1" fill="#000000" stroke-opacity="1" stroke="none" d="M87.993,12.918C86.561,11.222,84.634,10.289,82.567,10.289C82.567,10.289,82.564,10.289,82.562,10.289C82.561,10.289,82.561,10.289,82.56,10.289L25.531,10.344C23.463,10.346,21.536,11.283,20.106,12.982C18.742,14.601,17.992,16.736,17.994,18.993L18.069,94.98C18.07,96.171,18.578,97.127,19.463,97.601C19.829,97.797,20.227,97.894,20.639,97.894C21.224,97.894,21.835,97.698,22.418,97.312L47.258,80.845C47.72,80.538,48.663,80.537,49.126,80.843L73.998,97.262C74.993,97.918,76.07,98.021,76.954,97.545C77.838,97.069,78.345,96.112,78.343,94.921L78.271,20.557L88.493,20.547C88.923,20.547,89.336,20.375,89.64,20.071C89.944,19.766,90.114,19.353,90.114,18.923C90.112,16.667,89.358,14.534,87.993,12.918ZM50.914,78.134C49.36,77.108,47.017,77.111,45.465,78.14L21.313,94.151L21.24,18.99C21.238,17.498,21.717,16.106,22.588,15.072C23.392,14.117,24.438,13.591,25.534,13.59L76.665,13.54C75.6,15.067,75.022,16.955,75.024,18.937L75.024,18.937L75.024,18.938L75.024,18.938L75.024,18.938L75.097,94.098L50.914,78.134ZM78.465,17.312C78.682,16.449,79.073,15.663,79.617,15.016C80.422,14.061,81.468,13.535,82.567,13.534C84.486,13.534,86.116,15.121,86.668,17.304L78.465,17.312ZM78.465,17.312"/>
</g>
  <g id="Thin-S" transform="matrix(1.0,0.0,0.0,1.0,803.6216182215073,606.6816377527573)">  <path stroke-width="1px" fill="#000000" fill-rule="nonzero" stroke-opacity="1" stroke-miterlimit="4" stroke="none" stroke-linejoin="miter" stroke-dasharray="none" stroke-linecap="butt" fill-opacity="1" enable-background="new 0 0 2000 2000" d="M87.993,12.918C86.561,11.222,84.634,10.289,82.567,10.289C82.567,10.289,82.564,10.289,82.562,10.289C82.561,10.289,82.561,10.289,82.56,10.289L25.531,10.344C23.463,10.346,21.536,11.283,20.106,12.982C18.742,14.601,17.992,16.736,17.994,18.993L18.069,94.98C18.07,96.171,18.578,97.127,19.463,97.601C19.829,97.797,20.227,97.894,20.639,97.894C21.224,97.894,21.835,97.698,22.418,97.312L47.258,80.845C47.72,80.538,48.663,80.537,49.126,80.843L73.998,97.262C74.993,97.918,76.07,98.021,76.954,97.545C77.838,97.069,78.345,96.112,78.343,94.921L78.271,20.557L88.493,20.547C88.923,20.547,89.336,20.375,89.64,20.071C89.944,19.766,90.114,19.353,90.114,18.923C90.112,16.667,89.358,14.534,87.993,12.918ZM50.914,78.134C49.36,77.108,47.017,77.111,45.465,78.14L21.313,94.151L21.24,18.99C21.238,17.498,21.717,16.106,22.588,15.072C23.392,14.117,24.438,13.591,25.534,13.59L76.665,13.54C75.6,15.067,75.022,16.955,75.024,18.937L75.024,18.937L75.024,18.938L75.024,18.938L75.024,18.938L75.097,94.098L50.914,78.134ZM78.465,17.312C78.682,16.449,79.073,15.663,79.617,15.016C80.422,14.061,81.468,13.535,82.567,13.534C84.486,13.534,86.116,15.121,86.668,17.304L78.465,17.312ZM78.465,17.312"/>
</g>
  <g id="Ultralight-S" transform="matrix(1.0,0.0,0.0,1.0,506.91161822150735,606.6816377527573)">  <path stroke-miterlimit="4" stroke="none" stroke-opacity="1" fill="#000000" stroke-linecap="butt" stroke-width="1px" enable-background="new 0 0 2000 2000" stroke-linejoin="miter" fill-rule="nonzero" fill-opacity="1" stroke-dasharray="none" d="M87.993,12.918C86.561,11.222,84.634,10.289,82.567,10.289C82.567,10.289,82.564,10.289,82.562,10.289C82.561,10.289,82.561,10.289,82.56,10.289L25.531,10.344C23.463,10.346,21.536,11.283,20.106,12.982C18.742,14.601,17.992,16.736,17.994,18.993L18.069,94.98C18.07,96.171,18.578,97.127,19.463,97.601C19.829,97.797,20.227,97.894,20.639,97.894C21.224,97.894,21.835,97.698,22.418,97.312L47.258,80.845C47.72,80.538,48.663,80.537,49.126,80.843L73.998,97.262C74.993,97.918,76.07,98.021,76.954,97.545C77.838,97.069,78.345,96.112,78.343,94.921L78.271,20.557L88.493,20.547C88.923,20.547,89.336,20.375,89.64,20.071C89.944,19.766,90.114,19.353,90.114,18.923C90.112,16.667,89.358,14.534,87.993,12.918ZM50.914,78.134C49.36,77.108,47.017,77.111,45.465,78.14L21.313,94.151L21.24,18.99C21.238,17.498,21.717,16.106,22.588,15.072C23.392,14.117,24.438,13.591,25.534,13.59L76.665,13.54C75.6,15.067,75.022,16.955,75.024,18.937L75.024,18.937L75.024,18.938L75.024,18.938L75.024,18.938L75.097,94.098L50.914,78.134ZM78.465,17.312C78.682,16.449,79.073,15.663,79.617,15.016C80.422,14.061,81.468,13.535,82.567,13.534C84.486,13.534,86.116,15.121,86.668,17.304L78.465,17.312ZM78.465,17.312"/>
</g>
 </g>
</svg>
